<svg width="137" height="36" viewBox="0 0 137 36" fill="none" xmlns="http://www.w3.org/2000/svg">
<g clip-path="url(#clip0_8_3)">
<path d="M9.26421 30.4612C7.64108 28.9843 7.16724 25.8812 7.84348 23.633C9.01606 25.0504 10.6407 25.4994 12.3236 25.7529C14.9215 26.144 17.473 25.9977 19.8864 24.8158C20.1624 24.6804 20.4176 24.5005 20.7192 24.3183C20.9457 24.9722 21.0047 25.6324 20.9256 26.3044C20.7332 27.9408 19.915 29.2049 18.6137 30.1632C18.0934 30.5465 17.5428 30.8891 17.0054 31.2505C15.3543 32.3613 14.9076 33.6637 15.528 35.5583C15.5427 35.6045 15.5559 35.6506 15.5893 35.7633C14.7463 35.3878 14.1305 34.841 13.6614 34.1221C13.1658 33.3633 12.9301 32.524 12.9176 31.6158C12.9114 31.1739 12.9114 30.728 12.8517 30.2923C12.7059 29.2299 12.205 28.7544 11.2612 28.727C10.2925 28.6988 9.52634 29.2949 9.32317 30.2336C9.30764 30.3055 9.28517 30.3768 9.26266 30.4604L9.26421 30.4612Z" fill="white" fill-opacity="0.15"/>
<path d="M0 23.2584C0 23.2584 4.80637 20.9278 9.62621 20.9278L13.2602 9.73312C13.3962 9.19176 13.7935 8.82383 14.2419 8.82383C14.6904 8.82383 15.0876 9.19176 15.2237 9.73312L18.8577 20.9278C24.566 20.9278 28.4839 23.2584 28.4839 23.2584C28.4839 23.2584 20.3198 1.12048 20.3039 1.07606C20.0695 0.42154 19.674 0 19.1407 0H9.34399C8.8107 0 8.43112 0.42154 8.18082 1.07606C8.16319 1.11964 0 23.2584 0 23.2584Z" fill="white" fill-opacity="0.15"/>
<path d="M50.6749 20.0348C50.6749 21.9965 48.2235 23.1681 44.8295 23.1681C42.6205 23.1681 41.8393 22.6231 41.8393 21.4788C41.8393 20.28 42.8091 19.7078 45.018 19.7078C47.0115 19.7078 48.7085 19.7351 50.6749 19.9803V20.0348ZM50.7019 17.6099C49.4899 17.3374 47.6582 17.174 45.476 17.174C39.1186 17.174 36.1284 18.6725 36.1284 22.16C36.1284 25.7837 38.1757 27.1732 42.9168 27.1732C46.9307 27.1732 49.6515 26.1651 50.648 23.6857H50.8096C50.7827 24.2851 50.7558 24.8845 50.7558 25.3477C50.7558 26.6283 50.9713 26.7373 52.0221 26.7373H56.9788C56.7093 25.9744 56.5477 23.8219 56.5477 21.9692C56.5477 19.9803 56.6285 18.4818 56.6285 16.4656C56.6285 12.3514 54.1502 9.73587 46.3918 9.73587C43.0515 9.73587 39.3341 10.308 36.5055 11.1526C36.7749 12.2697 37.1521 14.5311 37.3406 16.0024C39.792 14.8581 43.2671 14.3677 45.9608 14.3677C49.6785 14.3677 50.7019 15.2122 50.7019 16.9288V17.6099Z" fill="white" fill-opacity="0.15"/>
<path d="M64.3023 21.1791C63.6287 21.2608 62.7131 21.2608 61.7701 21.2608C60.7732 21.2608 59.8576 21.2336 59.2379 21.1518C59.2379 21.3698 59.2109 21.615 59.2109 21.833C59.2109 25.2387 61.4468 27.2277 69.3129 27.2277C76.7209 27.2277 79.1184 25.266 79.1184 21.8057C79.1184 18.5363 77.5292 16.9287 70.4979 16.5745C65.0298 16.3293 64.5448 15.7299 64.5448 15.0488C64.5448 14.2586 65.2453 13.85 68.9087 13.85C72.7073 13.85 73.7307 14.3676 73.7307 15.4574V15.7027C74.2695 15.6754 75.2395 15.6482 76.2359 15.6482C77.1789 15.6482 78.2023 15.6754 78.7951 15.7299C78.7951 15.4847 78.822 15.2667 78.822 15.076C78.822 11.0709 75.4815 9.76306 69.0165 9.76306C61.7432 9.76306 59.2918 11.5341 59.2918 14.9943C59.2918 18.1003 61.2582 20.0348 68.2351 20.3345C73.3804 20.4979 73.9462 21.0701 73.9462 21.8602C73.9462 22.7048 73.111 23.0863 69.5015 23.0863C65.3531 23.0863 64.3023 22.5141 64.3023 21.3426V21.1791Z" fill="white" fill-opacity="0.15"/>
<path d="M88.0097 6.82056C86.0433 8.64603 82.5142 10.4715 80.5478 10.9619C80.5747 11.97 80.5747 13.8227 80.5747 14.8308L82.3795 14.8581C82.3525 16.7925 82.3256 19.1357 82.3256 20.6887C82.3256 24.3124 84.2381 27.037 90.1917 27.037C92.6969 27.037 94.367 26.7645 96.4411 26.3285C96.2256 24.9935 95.9836 22.9501 95.9027 21.397C94.6633 21.8058 93.1011 22.0237 91.3767 22.0237C88.9792 22.0237 88.0097 21.3698 88.0097 19.4899C88.0097 17.8551 88.0097 16.3293 88.0367 14.9126C91.1077 14.9398 94.1784 14.9943 95.9836 15.0488C95.9566 13.632 96.0105 11.5886 96.0913 10.2263C93.4783 10.2807 90.5419 10.308 88.1175 10.308C88.1444 9.1092 88.1714 7.96486 88.1983 6.82056H88.0097Z" fill="white" fill-opacity="0.15"/>
<path d="M104.099 14.0134C104.126 12.5966 104.153 11.3978 104.18 10.2263H98.7651C98.846 12.5694 98.846 14.967 98.846 18.4818C98.846 21.9965 98.819 24.4214 98.7651 26.7373H104.961C104.853 25.1025 104.826 22.3507 104.826 20.0075C104.826 16.3021 106.335 15.2395 109.756 15.2395C111.345 15.2395 112.477 15.4302 113.473 15.7844C113.5 14.3949 113.77 11.6975 113.931 10.4987C112.908 10.199 111.776 10.0083 110.402 10.0083C107.466 9.98108 105.311 11.1799 104.314 14.0407L104.099 14.0134Z" fill="white" fill-opacity="0.15"/>
<path d="M131.072 18.3728C131.072 21.3426 128.917 22.7321 125.522 22.7321C122.155 22.7321 120 21.4243 120 18.3728C120 15.3212 122.182 14.1769 125.522 14.1769C128.89 14.1769 131.072 15.403 131.072 18.3728ZM136.701 18.2366C136.701 12.3242 132.068 9.68137 125.522 9.68137C118.949 9.68137 114.477 12.3242 114.477 18.2366C114.477 24.1217 118.653 27.2822 125.495 27.2822C132.391 27.2822 136.701 24.1217 136.701 18.2366Z" fill="white" fill-opacity="0.15"/>
</g>
<defs>
<clipPath id="clip0_8_3">
<rect width="137" height="36" fill="white"/>
</clipPath>
</defs>
</svg>
