<svg width="91" height="91" viewBox="0 0 91 91" fill="none" xmlns="http://www.w3.org/2000/svg">
<g clip-path="url(#clip0_9_14)">
<path d="M28.4435 0H38.2189V4.08787H32.5314V8.17578H38.2189V12.2637H28.4435V0Z" fill="white" fill-opacity="0.15"/>
<path d="M40.1738 0H49.9495V3.55469H44.262V4.26562H49.9495V12.4414H40.1738V8.709H45.8613V7.99806H40.1738V0Z" fill="white" fill-opacity="0.15"/>
<path d="M51.9045 0H61.6798V3.55469H55.9923V4.26562H61.6798V12.4414H51.9045V8.709H57.592V7.99806H51.9045V0Z" fill="white" fill-opacity="0.15"/>
<path fill-rule="evenodd" clip-rule="evenodd" d="M45.4666 91L19.138 83.6908L11.375 17.8836H79.625L71.8676 83.6806L45.4666 91ZM26.7212 47.6715L27.4446 55.7424H55.4163L54.4794 66.2097L45.4776 68.6394L45.4697 68.642L36.481 66.215L35.9063 59.7779H27.8043L28.9351 72.4508L45.4678 77.0402L62.0237 72.4504L64.0416 49.8388L64.2388 47.6715L65.6959 31.3354H25.2679L26.0016 39.4064H56.8507L56.1163 47.6715H26.7212Z" fill="white" fill-opacity="0.15"/>
</g>
<defs>
<clipPath id="clip0_9_14">
<rect width="91" height="91" fill="white"/>
</clipPath>
</defs>
</svg>
