<svg width="91" height="91" viewBox="0 0 91 91" fill="none" xmlns="http://www.w3.org/2000/svg">
<path d="M7.35212 49.5188C5.13263 47.2992 5.13263 43.7008 7.35212 41.4812L41.4812 7.35212C43.7008 5.13263 47.2992 5.13263 49.5188 7.35212L83.6478 41.4812C85.8673 43.7008 85.8673 47.2992 83.6478 49.5188L49.5188 83.6478C47.2992 85.8673 43.7008 85.8673 41.4812 83.6478L7.35212 49.5188Z" fill="white" fill-opacity="0.15"/>
<path d="M34.5484 14.3937L31.0924 17.8498L40.0187 26.7761C39.6575 27.5508 39.4559 28.4148 39.4559 29.3259C39.4559 31.9126 41.0811 34.1196 43.366 34.9815V56.8176C41.0811 57.6795 39.4559 59.8865 39.4559 62.4732C39.4559 65.8106 42.1614 68.5162 45.4988 68.5162C48.8363 68.5162 51.5418 65.8106 51.5418 62.4732C51.5418 60.1283 50.2061 58.095 48.2539 57.0934V35.0114L56.7865 43.5441C56.443 44.3031 56.2519 45.1457 56.2519 46.0329C56.2519 49.3704 58.9575 52.0759 62.2949 52.0759C65.6323 52.0759 68.3379 49.3704 68.3379 46.0329C68.3379 42.6955 65.6323 39.99 62.2949 39.99C61.6462 39.99 61.0217 40.092 60.4359 40.2812L51.2719 31.1172C51.4474 30.5513 51.5418 29.9495 51.5418 29.3259C51.5418 25.9884 48.8363 23.2829 45.4988 23.2829C44.8752 23.2829 44.2738 23.3774 43.7076 23.5528L34.5484 14.3937Z" fill="black"/>
</svg>
