<svg width="91" height="91" viewBox="0 0 91 91" fill="none" xmlns="http://www.w3.org/2000/svg">
<g clip-path="url(#clip0_8_23)">
<path d="M77.35 0H13.65C6.11131 0 0 6.11131 0 13.65V77.35C0 84.8887 6.11131 91 13.65 91H77.35C84.8887 91 91 84.8887 91 77.35V13.65C91 6.11131 84.8887 0 77.35 0Z" fill="white" fill-opacity="0.15"/>
<path d="M57.5859 65.7617C59.3633 68.7832 61.8516 70.916 65.9395 70.916C69.4941 70.916 71.8047 69.1387 71.8047 66.6504C71.8047 63.8066 69.4941 62.7402 65.584 60.9629L63.4512 60.0742C57.2305 57.4082 53.1426 54.209 53.1426 47.2773C53.1426 40.8789 57.9414 35.9023 65.584 35.9023C71.0938 35.9023 75.0039 37.8574 77.6699 42.834L71.0938 47.0996C69.6719 44.4336 68.0723 43.3672 65.584 43.3672C63.0957 43.3672 61.4961 44.9668 61.4961 47.0996C61.4961 49.5879 63.0957 50.6543 66.8281 52.2539L68.9609 53.1426C76.248 56.3418 80.3359 59.3633 80.3359 66.6504C80.3359 74.293 74.293 78.5586 66.1172 78.5586C58.1191 78.5586 52.9648 74.8262 50.4766 69.8496L57.5859 65.7617ZM27.3711 66.4727C28.793 68.7832 29.8594 70.916 32.8809 70.916C35.7246 70.916 37.502 69.8496 37.502 65.584V36.0801H46.0332V65.2285C46.0332 74.1152 40.8789 78.0254 33.2363 78.0254C26.3047 78.0254 22.3945 74.4707 20.4395 70.2051L27.3711 66.4727Z" fill="black"/>
</g>
<defs>
<clipPath id="clip0_8_23">
<rect width="91" height="91" fill="white"/>
</clipPath>
</defs>
</svg>
