<svg viewBox="0 0 63 32" fill="none" xmlns="http://www.w3.org/2000/svg">
<path d="M8.47718 2.74878L9.04943 3.84211C9.17401 4.03933 9.31904 4.22242 9.48203 4.38825C9.96136 4.87518 10.4176 5.38558 10.826 5.93225C11.7962 7.22665 12.4509 8.66398 12.9187 10.2202C13.199 11.1706 13.3513 12.1445 13.3628 13.1301C13.4101 16.0757 12.4157 18.6053 10.405 20.7077C10.0792 21.041 9.72733 21.3469 9.35288 21.6224C9.15338 21.6224 9.06045 21.4624 8.97855 21.3253C8.82105 21.0586 8.73285 20.7669 8.68613 20.4704C8.61578 20.1141 8.56906 19.7578 8.59268 19.3893V19.2229C8.58113 19.1872 8.40578 2.83251 8.4756 2.74931L8.47718 2.74878Z" fill="white" fill-opacity="0.15"/>
<path d="M8.47719 2.71355C8.45357 2.66555 8.42994 2.70181 8.40684 2.72528C8.41839 2.96261 8.33649 3.17648 8.20734 3.37861C8.06717 3.58128 7.87974 3.73488 7.69284 3.90128C6.65229 4.81595 5.83434 5.92048 5.17914 7.15568C4.31394 8.81861 3.85824 10.5999 3.73014 12.4767C3.67239 13.1541 3.94014 15.5413 4.15119 16.2298C4.72344 18.0591 5.75244 19.5909 7.09119 20.921C7.41879 21.241 7.76949 21.5386 8.13174 21.8234C8.23674 21.8234 8.24882 21.7285 8.27192 21.657C8.31798 21.5053 8.35308 21.3504 8.37692 21.1935C8.48192 20.5999 8.54072 20.0058 8.61054 19.4122L8.48192 2.71355H8.47719Z" fill="white" fill-opacity="0.15"/>
<path d="M9.05104 22.3467C9.07466 22.0736 9.20854 21.848 9.34346 21.6224C9.20329 21.5637 9.09776 21.4443 9.01586 21.3131C8.94551 21.1941 8.88724 21.0464 8.84051 20.9211C8.67671 20.4224 8.64101 19.8997 8.59481 19.3888V19.0795C8.53706 19.1275 8.52446 19.5307 8.52446 19.5904C8.48929 20.1365 8.41946 20.6715 8.31446 21.1936C8.27929 21.4069 8.25671 21.6213 8.12756 21.8112C8.12756 21.8352 8.12756 21.8592 8.13911 21.8944C8.34911 22.5237 8.40791 23.1653 8.44361 23.8187V24.056C8.44361 24.3408 8.43206 24.2816 8.66569 24.376C8.75914 24.4117 8.86519 24.424 8.95811 24.4949C9.02846 24.4949 9.04001 24.4363 9.04001 24.3883L9.00484 23.9963V22.9029C8.99329 22.7131 9.02846 22.5227 9.05209 22.3445L9.05104 22.3467Z" fill="white" fill-opacity="0.15"/>
<path d="M17.9291 17.3794V18.5106C17.9279 18.5553 17.9304 18.6002 17.9366 18.6445C17.9511 18.7785 18.032 18.8602 18.1511 18.8978C18.2621 18.9275 18.3749 18.9498 18.4888 18.9648C18.5547 18.9724 18.5767 19.0018 18.5842 19.0737C18.5917 19.3269 18.5697 19.3569 18.328 19.3416C17.764 19.3117 17.1995 19.3046 16.6355 19.3416H16.5819C16.4061 19.3492 16.3916 19.334 16.3916 19.1554C16.3916 19.1254 16.3991 19.0884 16.3991 19.0584C16.3991 19.004 16.4356 18.9767 16.487 18.9767C16.605 18.962 16.7143 18.9321 16.8248 18.9097C16.9786 18.8727 17.066 18.7758 17.081 18.6195C17.1025 18.4485 17.1025 18.2698 17.1025 18.0983L17.11 16.104C17.1124 16.0461 17.0985 15.9888 17.0701 15.9386C17.0416 15.8885 16.9996 15.8476 16.9491 15.8208C16.8166 15.746 16.6764 15.6861 16.531 15.6421C16.487 15.6274 16.4431 15.6204 16.4066 15.5975C16.2994 15.5452 16.2967 15.4488 16.3991 15.3889C16.4356 15.3671 16.4795 15.3519 16.5235 15.3443C16.9681 15.2776 17.4049 15.1654 17.8273 15.0093C17.9152 14.9794 17.9372 14.9875 17.9452 15.0763C17.9527 15.1308 17.9452 15.1961 17.9377 15.2473C17.9232 15.3443 17.9232 15.4406 17.9232 15.5305C17.9232 15.5675 17.9307 15.6051 17.9672 15.6274C18.0036 15.6498 18.0406 15.6274 18.0744 15.6057C18.2283 15.4858 18.3821 15.3748 18.5504 15.2789C18.7917 15.1449 19.049 15.0257 19.3278 14.9886C19.6655 14.944 19.9577 15.0333 20.2145 15.2566C20.3206 15.3531 20.4142 15.4631 20.4927 15.5839C20.5661 15.6928 20.5731 15.6955 20.6685 15.6209C20.9473 15.4123 21.24 15.2266 21.5552 15.0926C21.8849 14.9511 22.2221 14.9293 22.5588 15.048C22.903 15.1743 23.1378 15.42 23.2772 15.7549C23.3951 16.0228 23.4455 16.2995 23.4455 16.5881V18.5824C23.4455 18.7164 23.4991 18.8003 23.6288 18.8656C23.7682 18.9201 23.9221 18.9473 24.0684 18.9773C24.1638 18.9991 24.1638 18.9991 24.1638 19.0971C24.1494 19.3422 24.1274 19.3574 23.8926 19.3422C23.3046 19.3087 22.7152 19.3087 22.1272 19.3422C22.0093 19.3498 22.0093 19.3498 22.0029 19.2305V19.1935C21.9954 18.992 21.9954 18.992 22.1862 18.9484L22.3765 18.8961C22.441 18.8807 22.4985 18.8437 22.5397 18.791C22.581 18.7384 22.6035 18.6731 22.6038 18.6059L22.6253 18.0476L22.6108 16.5892C22.6052 16.459 22.578 16.3307 22.5304 16.2096C22.347 15.7554 21.9444 15.592 21.5558 15.6367C21.2625 15.6667 21.0063 15.7854 20.7645 15.9569C20.713 15.994 20.6766 16.0386 20.6841 16.1132C20.75 16.5898 20.7055 17.0663 20.7136 17.5423V18.577C20.7136 18.7632 20.787 18.8526 20.9629 18.8972L21.3006 18.9718C21.3521 18.9795 21.381 19.0018 21.381 19.0611V19.1156C21.3735 19.3242 21.3596 19.3334 21.1537 19.3313C20.5678 19.3013 19.9813 19.3095 19.4028 19.3313C19.2045 19.3389 19.1884 19.3166 19.1975 19.1134C19.205 18.9936 19.219 18.9871 19.3294 18.9648L19.5706 18.9201C19.7851 18.8754 19.8639 18.7937 19.8783 18.5628L19.8998 18.064L19.8853 16.568C19.8708 16.3817 19.8317 16.2031 19.7315 16.0321C19.5851 15.7565 19.3562 15.6155 19.0426 15.6002C18.7274 15.5784 18.4491 15.6972 18.1848 15.8453C18.0015 15.9542 17.9211 16.0833 17.9356 16.2995V17.386L17.9291 17.3794ZM31.7318 17.4246V18.4741C31.733 18.5487 31.7378 18.6232 31.7463 18.6974C31.7494 18.7468 31.7683 18.7938 31.8 18.8314C31.8317 18.869 31.8746 18.8952 31.9221 18.9059C32.0485 18.9434 32.1788 18.9658 32.3103 18.9729C32.3837 18.9805 32.3982 19.01 32.4057 19.0699V19.1221C32.3982 19.3825 32.3692 19.4124 32.12 19.3977C31.5624 19.3607 31.0065 19.3678 30.4495 19.3977L30.2351 19.4053C30.1911 19.4053 30.1815 19.3835 30.1691 19.3531C30.1477 19.25 30.1477 19.1435 30.1691 19.0405C30.1766 18.9958 30.2056 18.986 30.2495 18.9735C30.3568 18.9588 30.4479 18.9364 30.5498 18.919C30.7331 18.8743 30.799 18.7992 30.806 18.6064L30.8274 17.9812V16.1503C30.8274 16.0163 30.776 15.9346 30.6591 15.8747C30.5272 15.8001 30.3879 15.7483 30.241 15.6961C30.197 15.6814 30.153 15.6661 30.1166 15.6438C30.0212 15.5768 30.0094 15.4804 30.1021 15.4058C30.1437 15.3711 30.1948 15.3501 30.2485 15.3459C30.7175 15.2713 31.1716 15.1673 31.6112 14.9886C31.6627 14.9668 31.6847 14.981 31.7066 15.0257C31.7286 15.0703 31.7361 15.1226 31.7281 15.1743L31.7066 15.524C31.7066 15.5686 31.6852 15.6329 31.7211 15.6503C31.7651 15.6803 31.7946 15.6133 31.831 15.5959C32.0473 15.4115 32.2863 15.2565 32.5419 15.1346C32.7692 15.0257 33.0029 14.956 33.2672 14.9712C33.7583 15.0012 34.1099 15.2544 34.3367 15.6933C34.4546 15.9243 34.505 16.1769 34.527 16.4378L34.5485 16.9824L34.556 18.6271C34.5635 18.7534 34.6074 18.8357 34.7318 18.8803C34.8607 18.924 34.9931 18.9564 35.1274 18.9773C35.2454 18.992 35.2518 19.0143 35.2593 19.126V19.163C35.2448 19.4162 35.2298 19.4233 34.9805 19.4081C34.4339 19.3783 33.8862 19.3783 33.3396 19.4081C33.2661 19.4157 33.1932 19.4081 33.1251 19.4157C33.0812 19.4157 33.0517 19.4081 33.0447 19.3634C33.0302 19.2665 33.0152 19.1701 33.0372 19.0655C33.0447 19.0208 33.0667 18.9985 33.1176 18.9909L33.4554 18.9364C33.5733 18.9065 33.6387 18.8275 33.6537 18.7186L33.6682 18.51L33.6607 16.9546C33.6607 16.776 33.6532 16.5974 33.6167 16.4187C33.5288 16.0375 33.2431 15.7652 32.8555 15.7271C32.5177 15.6901 32.2122 15.7794 31.9323 15.9651C31.7929 16.0544 31.734 16.1808 31.734 16.3371V17.4611C31.734 17.4393 31.734 17.4393 31.7415 17.4393L31.7318 17.4246Z" fill="white" fill-opacity="0.15"/>
<path d="M53.1894 15.3181C53.1089 14.7746 52.9106 14.291 52.5664 13.8667C52.2665 13.4919 51.8784 13.2001 51.438 13.0182C50.9769 12.8249 50.4853 12.765 49.9873 12.7503C49.782 12.7427 46.9836 12.7873 46.7783 12.7503C46.7268 12.7427 46.6903 12.7579 46.6603 12.8026C46.6239 12.857 46.5869 12.9142 46.5649 12.9736C46.477 13.1751 46.477 13.1598 46.6893 13.1892C46.8651 13.2192 47.0334 13.2339 47.2023 13.2862C47.3562 13.3385 47.4661 13.4278 47.5025 13.5988C47.517 13.6805 47.532 16.3 47.532 17.521L47.5025 18.3923C47.495 18.4593 47.488 18.5263 47.4661 18.5857C47.4366 18.675 47.3856 18.7491 47.2977 18.7872C47.201 18.8334 47.0967 18.8611 46.99 18.8689C46.7917 18.8906 46.7627 18.8988 46.6968 19.1221L46.6753 19.2038C46.6609 19.3007 46.6678 19.3154 46.7632 19.3154L48.9537 19.3372L49.8115 19.3225L50.4049 19.2479C51.0788 19.1216 51.6797 18.8384 52.1922 18.3847C52.485 18.122 52.724 17.8034 52.8956 17.4469C53.1009 17.0303 53.1888 16.5756 53.2108 16.1148C53.2473 15.8545 53.2322 15.5866 53.1894 15.3186V15.3181ZM52.1268 16.3746C52.0973 16.8511 52.0025 17.3124 51.7607 17.729C51.453 18.2725 51.0134 18.6521 50.4054 18.7855C50.1417 18.84 49.8779 18.8672 49.6013 18.8302C49.403 18.8084 49.2132 18.7855 49.0298 18.7186C48.7001 18.5987 48.5827 18.3918 48.5758 18.065L48.5683 13.5775C48.5683 13.3096 48.6862 13.2508 48.876 13.2426C49.1617 13.2208 49.455 13.2279 49.7407 13.2573C50.0449 13.2872 50.3434 13.3605 50.6274 13.4752C50.8384 13.5645 51.0339 13.6877 51.2064 13.84C51.602 14.1831 51.8658 14.6134 52.0105 15.1198C52.1284 15.5294 52.1499 15.946 52.1284 16.3626L52.1268 16.3746ZM59.2783 17.1044C59.2783 17.0597 59.2783 17.0227 59.2708 16.978C59.2048 16.5685 58.992 16.2559 58.6628 16.0179C58.4505 15.8616 58.2088 15.7576 57.9595 15.683C57.9155 15.6683 57.8791 15.653 57.8351 15.6459C57.8426 15.6089 57.8646 15.6013 57.8866 15.5936C58.0329 15.519 58.1723 15.4373 58.2967 15.3257C58.524 15.1324 58.672 14.8938 58.7508 14.6036C58.7947 14.4473 58.7947 14.291 58.7802 14.127C58.7683 13.9353 58.714 13.7487 58.6214 13.5812C58.5288 13.4136 58.4002 13.2694 58.2452 13.1593C57.9075 12.906 57.5124 12.802 57.1023 12.7944C56.311 12.7797 55.5128 12.7944 54.722 12.7944C54.4947 12.7944 54.268 12.8091 54.0332 12.7726C53.9892 12.765 53.9259 12.7508 53.8938 12.8026C53.8402 12.8995 53.7758 12.9959 53.7544 13.1075C53.7469 13.1598 53.7619 13.1892 53.8203 13.1969L54.3259 13.2715C54.5242 13.3014 54.6636 13.4131 54.6775 13.5917C54.6919 13.7151 54.6991 13.8393 54.699 13.9637L54.6845 15.3551L54.677 18.1086C54.677 18.272 54.6556 18.4288 54.6255 18.5922C54.6183 18.6441 54.5965 18.6927 54.5628 18.7323C54.529 18.7719 54.4847 18.8008 54.4352 18.8155C54.2889 18.8602 54.1495 18.9048 53.9956 18.9048C53.9545 18.9008 53.9133 18.9112 53.8787 18.9341C53.8441 18.9571 53.8183 18.9913 53.8053 19.0312C53.7758 19.0981 53.7517 19.1728 53.7394 19.2397C53.7249 19.3291 53.7469 19.3595 53.8348 19.3487C53.9007 19.341 56.3185 19.4009 56.7726 19.3563C57.0438 19.3263 57.3087 19.2893 57.5783 19.2076C58.0394 19.0589 58.465 18.8427 58.8017 18.4778C59.0805 18.1799 59.2413 17.8227 59.2558 17.4061C59.2772 17.3091 59.2772 17.2127 59.2772 17.1082L59.2783 17.1044ZM55.7251 14.0546L55.7465 13.4594C55.7465 13.3477 55.7905 13.296 55.9004 13.2731C56.0762 13.2361 56.252 13.2513 56.4279 13.2584C56.6037 13.2731 56.772 13.2954 56.9479 13.3477C57.2695 13.4447 57.5194 13.6309 57.6662 13.943C57.7329 14.0849 57.7678 14.2399 57.7686 14.3972C57.7761 14.6057 57.7611 14.8067 57.6807 15.0071C57.5563 15.2827 57.3591 15.4613 57.0728 15.5136C56.7865 15.5659 55.9738 15.5435 55.8494 15.5435C55.7395 15.5435 55.7315 15.5288 55.7315 15.4172V14.7163C55.7143 14.4983 55.7118 14.2794 55.724 14.0611L55.7251 14.0546ZM58.1053 18.0585C57.9809 18.3934 57.7536 18.6249 57.4314 18.7501C57.2556 18.8171 57.0798 18.8591 56.8953 18.8471C56.668 18.8395 56.4413 18.8471 56.2145 18.8024C55.9068 18.7354 55.7674 18.4375 55.7454 18.2219C55.709 17.8423 55.731 17.4551 55.724 17.1724V16.19C55.724 16.0702 55.7385 16.0337 55.8634 16.0337L56.5523 16.0413L57.0213 16.0958C57.351 16.1704 57.6512 16.2973 57.886 16.557C58.0764 16.7656 58.1793 17.0183 58.2013 17.2939C58.2227 17.5542 58.2088 17.8074 58.1133 18.0531L58.1053 18.0585Z" fill="white" fill-opacity="0.15"/>
<path d="M39.4907 15.8164L39.681 15.8463C39.8863 15.854 40.1281 15.7794 40.201 15.4891C40.2412 15.3504 40.2412 15.2029 40.201 15.0643C40.157 15.0643 40.135 15.1013 40.1131 15.1166C40.0032 15.2059 39.8788 15.2582 39.7469 15.2729C39.4832 15.3028 39.2194 15.2876 38.9632 15.1912L38.604 15.0648C38.3535 14.9815 38.0898 14.9464 37.8266 14.9614C37.453 14.9913 37.1013 15.1177 36.7716 15.2963C36.4199 15.4896 36.1712 15.7799 36.0533 16.1747C35.9873 16.4056 35.9798 16.6431 36.0093 16.8816C36.0827 17.4251 36.361 17.8047 36.859 18.0057C36.8885 18.0133 36.9105 18.0275 36.9394 18.0356C37.0054 18.0727 37.0129 18.1102 36.9539 18.162L36.7705 18.2883L36.3309 18.5639C36.2211 18.6309 36.2066 18.6837 36.243 18.8019C36.2866 18.9409 36.3678 19.0647 36.4773 19.1591C36.5778 19.2468 36.6917 19.3172 36.8145 19.3677C36.8949 19.4048 36.8949 19.4222 36.822 19.4875L36.4039 19.7925C36.2645 19.9014 36.1251 20.0103 36.0082 20.1498C35.9269 20.2381 35.8684 20.3455 35.8377 20.4623C35.807 20.5792 35.8052 20.7019 35.8324 20.8196C35.8869 21.078 36.02 21.3123 36.213 21.4895C36.4035 21.6687 36.6352 21.7966 36.8869 21.8614C37.297 21.9813 37.7221 21.9878 38.1397 21.9061C38.7401 21.7945 39.2655 21.5249 39.6783 21.0652C39.964 20.7603 40.1324 20.403 40.1474 19.976C40.1634 19.7291 40.0926 19.4844 39.9477 19.2855C39.8029 19.0865 39.5932 18.9463 39.3561 18.8896L38.9605 18.815L37.7516 18.706C37.6197 18.6984 37.4878 18.6761 37.3779 18.6091C37.2386 18.5198 37.2021 18.3488 37.29 18.2371C37.356 18.1554 37.4364 18.1032 37.5393 18.0955L37.7736 18.0738C38.2369 18.0259 38.6718 17.8246 39.0114 17.5008C39.1927 17.3303 39.3224 17.1108 39.3851 16.868C39.473 16.5478 39.473 16.2145 39.3995 15.8877C39.3781 15.806 39.3851 15.7984 39.4874 15.8131L39.4907 15.8164ZM37.6948 19.5235C37.7387 19.5311 37.7827 19.5235 37.8266 19.5235C38.1344 19.5382 38.4496 19.5605 38.7498 19.6433C38.8478 19.6727 38.9434 19.71 39.0355 19.7549C39.3288 19.9183 39.4387 20.2015 39.4017 20.5065C39.3577 20.8414 39.1744 21.0794 38.8886 21.2362C38.6983 21.3452 38.4855 21.3925 38.2657 21.4149C38.1853 21.4225 38.1118 21.4149 38.0314 21.4149C37.7752 21.4225 37.5259 21.3931 37.2841 21.2885C37.1158 21.2215 36.9764 21.1251 36.852 20.9906C36.5958 20.7303 36.4768 20.2538 36.8595 19.8666C37.0938 19.6487 37.3581 19.4946 37.6948 19.5235ZM38.53 17.2013C38.3761 17.5956 38.0389 17.7149 37.7023 17.6626C37.3946 17.6179 37.1673 17.4469 37.0214 17.1637C36.8311 16.7841 36.7802 16.3904 36.8896 15.9803C36.97 15.6753 37.1533 15.4444 37.4755 15.3921C37.8856 15.3175 38.2796 15.4668 38.4866 15.8834C38.5938 16.0849 38.6404 16.3299 38.6404 16.6796C38.6329 16.8212 38.604 17.0145 38.5305 17.2008L38.53 17.2013ZM29.2996 16.6948C29.2337 16.2929 29.0873 15.928 28.816 15.6231C28.4129 15.1689 27.9004 14.9695 27.3214 14.9679C26.8159 14.9603 26.3404 15.1095 25.9147 15.3774C25.4963 15.6318 25.1895 16.0393 25.0575 16.5162C24.9331 16.9481 24.9396 17.3876 25.0361 17.826C25.2923 19.0023 26.1865 19.5077 27.2555 19.4336C27.5707 19.4118 27.8709 19.3073 28.1561 19.1657C28.5812 18.9642 28.8889 18.6445 29.1012 18.2203C29.2696 17.8706 29.3425 17.4981 29.3355 17.0739L29.2991 16.6943L29.2996 16.6948ZM28.2596 18.3471C28.2072 18.5146 28.1079 18.6629 27.9738 18.7739C27.8398 18.885 27.6768 18.9539 27.5048 18.9723C27.1831 19.017 26.8818 18.9353 26.6111 18.7414C26.4157 18.5954 26.2574 18.404 26.1495 18.1832C25.8493 17.558 25.7979 16.9034 25.9512 16.2336C26.0005 16.0262 26.1073 15.8376 26.2589 15.69C26.5302 15.4368 26.8448 15.3774 27.197 15.4521C27.5348 15.5267 27.7905 15.7124 28.0012 15.9956C28.2119 16.2788 28.3089 16.6055 28.3673 16.9486C28.3968 17.1196 28.3968 17.2982 28.4038 17.4099C28.4038 17.7671 28.3743 18.0634 28.2644 18.3477L28.2596 18.3471ZM45.3072 16.7547C45.2536 16.3229 45.0949 15.9286 44.7942 15.6013C44.3986 15.1623 43.8855 14.9761 43.3146 14.9684C42.8235 14.9608 42.3695 15.1024 41.9519 15.348C41.4828 15.6312 41.1606 16.0326 41.0362 16.5761C40.8877 17.1691 40.95 17.7963 41.2121 18.3471C41.4533 18.8683 41.8639 19.2033 42.4065 19.3519C43.0069 19.5153 43.5789 19.4412 44.1353 19.1657C44.6189 18.9277 44.9631 18.5557 45.1609 18.0492C45.2788 17.7514 45.3217 17.4317 45.3292 17.0592C45.3367 16.9922 45.3217 16.8729 45.3078 16.7542L45.3072 16.7547ZM44.2962 18.2507C44.1782 18.6527 43.93 18.913 43.5124 18.9729C43.2047 19.0175 42.912 18.9429 42.6477 18.7643C42.4204 18.608 42.2596 18.3994 42.1422 18.1544C42.0103 17.894 41.9368 17.6185 41.9079 17.3358C41.8639 16.9862 41.8639 16.6442 41.9443 16.294C41.9597 16.225 41.9818 16.1576 42.0103 16.093C42.2156 15.5719 42.6697 15.3339 43.2047 15.4531C43.5639 15.5348 43.8346 15.7363 44.0399 16.0413C44.2383 16.3392 44.3332 16.6665 44.3777 17.0216C44.3991 17.1632 44.4071 17.3119 44.3991 17.4382C44.3991 17.7285 44.3777 17.9964 44.2919 18.2567L44.2962 18.2507Z" fill="white" fill-opacity="0.15"/>
</svg>
