<svg  viewBox="0 0 37 37" fill="none" xmlns="http://www.w3.org/2000/svg">
<path d="M18.2912 29.7803C18.1659 29.7803 18.049 29.7469 17.9404 29.6884L16.8295 29.0286C16.6625 28.9367 16.746 28.9033 16.7961 28.8866C17.0216 28.8114 17.0634 28.7947 17.2973 28.6611C17.3223 28.6444 17.3557 28.6527 17.3808 28.6694L18.2327 29.1789C18.2661 29.1956 18.3079 29.1956 18.3329 29.1789L21.6654 27.2496C21.6988 27.2329 21.7155 27.1995 21.7155 27.1577V23.3074C21.7155 23.2656 21.6988 23.2322 21.6654 23.2155L18.3329 21.2945C18.2995 21.2778 18.2578 21.2778 18.2327 21.2945L14.9002 23.2155C14.8668 23.2322 14.8501 23.274 14.8501 23.3074V27.1577C14.8501 27.1911 14.8668 27.2329 14.9002 27.2496L15.8106 27.7758C16.3034 28.0263 16.6124 27.734 16.6124 27.4417V23.6414C16.6124 23.5913 16.6541 23.5412 16.7126 23.5412H17.1386C17.1887 23.5412 17.2388 23.583 17.2388 23.6414V27.4417C17.2388 28.1015 16.8797 28.4857 16.2532 28.4857C16.0611 28.4857 15.9108 28.4857 15.4848 28.2769L14.6079 27.7758C14.3907 27.6505 14.2571 27.4166 14.2571 27.1661V23.3157C14.2571 23.0652 14.3907 22.8313 14.6079 22.706L17.9404 20.7767C18.1492 20.6597 18.4332 20.6597 18.642 20.7767L21.9745 22.706C22.1916 22.8313 22.3253 23.0652 22.3253 23.3157V27.1661C22.3253 27.4166 22.1916 27.6505 21.9745 27.7758L18.642 29.7051C18.5334 29.7552 18.4081 29.7803 18.2912 29.7803ZM19.3185 27.1326C17.8569 27.1326 17.5562 26.4645 17.5562 25.8965C17.5562 25.8464 17.5979 25.7963 17.6564 25.7963H18.0907C18.1408 25.7963 18.1826 25.8297 18.1826 25.8798C18.2494 26.3225 18.4415 26.5396 19.3268 26.5396C20.0284 26.5396 20.3291 26.381 20.3291 26.0051C20.3291 25.788 20.2456 25.6293 19.1514 25.5207C18.2411 25.4288 17.6731 25.2284 17.6731 24.5017C17.6731 23.8252 18.2411 23.4243 19.1932 23.4243C20.2623 23.4243 20.7885 23.7918 20.8553 24.5936C20.8553 24.6186 20.8469 24.6437 20.8302 24.6688C20.8135 24.6855 20.7885 24.7022 20.7634 24.7022H20.3291C20.2873 24.7022 20.2456 24.6688 20.2372 24.627C20.137 24.1676 19.8781 24.0173 19.1932 24.0173C18.4248 24.0173 18.3329 24.2846 18.3329 24.485C18.3329 24.7272 18.4415 24.8024 19.4772 24.936C20.5045 25.0697 20.9889 25.2618 20.9889 25.98C20.9806 26.715 20.3792 27.1326 19.3185 27.1326Z" fill="white" fill-opacity="0.15"/>
<path d="M7.95126 14.7213C7.95126 14.571 7.86774 14.429 7.73411 14.3538L4.1928 12.3159C4.13433 12.2825 4.06751 12.2658 4.0007 12.2574H3.96729C3.90047 12.2574 3.83365 12.2825 3.77519 12.3159L0.233879 14.3538C0.100245 14.429 0.0167236 14.571 0.0167236 14.7213L0.0250758 20.2003C0.0250758 20.2755 0.0668365 20.3507 0.133654 20.3841C0.200471 20.4258 0.283992 20.4258 0.342457 20.3841L2.4472 19.1814C2.58083 19.1062 2.66435 18.9642 2.66435 18.8139V16.2498C2.66435 16.0994 2.74787 15.9574 2.88151 15.8823L3.77519 15.3644C3.84201 15.3227 3.91718 15.306 3.99234 15.306C4.06751 15.306 4.14268 15.3227 4.20115 15.3644L5.09483 15.8823C5.22846 15.9574 5.31198 16.0994 5.31198 16.2498V18.8139C5.31198 18.9642 5.3955 19.1062 5.52914 19.1814L7.63388 20.3841C7.7007 20.4258 7.78422 20.4258 7.85104 20.3841C7.91785 20.3507 7.95961 20.2755 7.95961 20.2003L7.95126 14.7213Z" fill="white" fill-opacity="0.15"/>
<path d="M24.973 7.17935C24.9062 7.14594 24.8227 7.14594 24.7642 7.17935C24.6974 7.22111 24.6556 7.28793 24.6556 7.3631V12.792C24.6556 12.8421 24.6306 12.8922 24.5804 12.9256C24.5303 12.9507 24.4802 12.9507 24.4301 12.9256L23.5448 12.4161C23.4111 12.341 23.2525 12.341 23.1188 12.4161L19.5775 14.4624C19.4439 14.5376 19.3604 14.6796 19.3604 14.8299V18.9141C19.3604 19.0645 19.4439 19.2064 19.5775 19.2816L23.1188 21.3279C23.2525 21.4031 23.4111 21.4031 23.5448 21.3279L27.0861 19.2816C27.2197 19.2064 27.3032 19.0645 27.3032 18.9141V8.73285C27.3032 8.57416 27.2197 8.43217 27.0861 8.35701L24.973 7.17935ZM24.6473 17.5694C24.6473 17.6112 24.6306 17.6446 24.5971 17.6613L23.3861 18.3629C23.3527 18.3796 23.3109 18.3796 23.2775 18.3629L22.0664 17.6613C22.033 17.6446 22.0163 17.6028 22.0163 17.5694V16.1663C22.0163 16.1245 22.033 16.0911 22.0664 16.0744L23.2775 15.3728C23.3109 15.3561 23.3527 15.3561 23.3861 15.3728L24.5971 16.0744C24.6306 16.0911 24.6473 16.1329 24.6473 16.1663V17.5694Z" fill="white" fill-opacity="0.15"/>
<path d="M36.7578 16.1329C36.8914 16.0577 36.9666 15.9157 36.9666 15.7654V14.7715C36.9666 14.6211 36.8831 14.4792 36.7578 14.404L33.2416 12.3661C33.1079 12.2909 32.9492 12.2909 32.8156 12.3661L29.2743 14.4123C29.1407 14.4875 29.0571 14.6295 29.0571 14.7798V18.864C29.0571 19.0144 29.1407 19.1564 29.2743 19.2315L32.7905 21.236C32.9242 21.3112 33.0829 21.3112 33.2081 21.236L35.3379 20.05C35.4048 20.0166 35.4465 19.9415 35.4465 19.8663C35.4465 19.7911 35.4048 19.716 35.3379 19.6825L31.7799 17.6363C31.7131 17.5945 31.6714 17.5277 31.6714 17.4525V16.1746C31.6714 16.0995 31.7131 16.0243 31.7799 15.9909L32.8908 15.3561C32.9576 15.3144 33.0411 15.3144 33.1079 15.3561L34.2188 15.9909C34.2856 16.0327 34.3273 16.0995 34.3273 16.1746V17.1769C34.3273 17.2521 34.3691 17.3272 34.4359 17.3607C34.5027 17.4024 34.5862 17.4024 34.6531 17.3607L36.7578 16.1329Z" fill="white" fill-opacity="0.15"/>
<path d="M32.9743 15.9408C32.9993 15.924 33.0327 15.924 33.0578 15.9408L33.7343 16.3333C33.7594 16.35 33.7761 16.3751 33.7761 16.4085V17.1936C33.7761 17.227 33.7594 17.252 33.7343 17.2687L33.0578 17.6613C33.0327 17.678 32.9993 17.678 32.9743 17.6613L32.2977 17.2687C32.2727 17.252 32.256 17.227 32.256 17.1936V16.4085C32.256 16.3751 32.2727 16.35 32.2977 16.3333L32.9743 15.9408Z" fill="white" fill-opacity="0.15"/>
<path d="M13.8729 12.3828C13.7393 12.3076 13.5806 12.3076 13.447 12.3828L9.93073 14.4124C9.79709 14.4875 9.72192 14.6295 9.72192 14.7799V18.8474C9.72192 18.9977 9.80545 19.1397 9.93073 19.2148L13.447 21.2444C13.5806 21.3196 13.7393 21.3196 13.8729 21.2444L17.3892 19.2148C17.5228 19.1397 17.598 18.9977 17.598 18.8474V14.7799C17.598 14.6295 17.5145 14.4875 17.3892 14.4124L13.8729 12.3828Z" fill="white" fill-opacity="0.15"/>
</svg>
