<svg width="91" height="91" viewBox="0 0 91 91" fill="none" xmlns="http://www.w3.org/2000/svg">
<path d="M74.8203 31.2186C73.8763 30.8936 72.8981 30.5862 71.8909 30.2954C72.0564 29.6198 72.2084 28.953 72.3434 28.2974C74.5609 17.5335 73.1111 8.86192 68.1602 6.00689C63.4129 3.26928 55.6491 6.12367 47.808 12.9475C47.054 13.6037 46.2979 14.2984 45.5421 15.0265C45.0385 14.5448 44.5357 14.0793 44.0343 13.634C35.8166 6.33748 27.5796 3.26264 22.6336 6.12594C17.8909 8.87148 16.4864 17.0235 18.4824 27.2246C18.6752 28.21 18.9005 29.2162 19.1553 30.2392C17.9895 30.5702 16.8641 30.9229 15.7873 31.2983C6.15293 34.6572 0 39.9215 0 45.382C0 51.0216 6.60517 56.6782 16.6401 60.1081C17.432 60.3788 18.2537 60.6347 19.1005 60.8777C18.8257 61.9842 18.5866 63.0684 18.3859 64.126C16.4826 74.1501 17.969 82.1095 22.6991 84.8377C27.5848 87.6552 35.7845 84.7592 43.7689 77.7798C44.4 77.2281 45.0333 76.6431 45.6678 76.0298C46.4902 76.8217 47.3112 77.5712 48.1279 78.2742C55.8618 84.9294 63.5002 87.6168 68.2259 84.881C73.1068 82.0554 74.6931 73.5051 72.6337 63.1021C72.4764 62.3076 72.2934 61.4959 72.0878 60.6699C72.6637 60.4996 73.229 60.3239 73.7802 60.1412C84.2124 56.6847 91 51.0969 91 45.382C91 39.9018 84.6487 34.602 74.8203 31.2186ZM72.5576 56.4511C72.06 56.6159 71.5494 56.7751 71.0292 56.9294C69.8775 53.2835 68.3231 49.4065 66.421 45.4009C68.2362 41.4908 69.7304 37.6634 70.8498 34.041C71.7807 34.3104 72.6842 34.5945 73.5549 34.8943C81.9758 37.7933 87.1125 42.0794 87.1125 45.382C87.1125 48.8998 81.5651 53.4665 72.5576 56.4511ZM68.8201 63.8571C69.7307 68.4572 69.8608 72.6161 69.2576 75.8674C68.7156 78.7888 67.6256 80.7366 66.278 81.5167C63.4102 83.1766 57.2773 81.0189 50.6632 75.3273C49.905 74.6749 49.1413 73.9782 48.3751 73.2409C50.9392 70.4365 53.5019 67.1764 56.003 63.5557C60.4022 63.1653 64.5584 62.5271 68.3275 61.6558C68.5131 62.4046 68.678 63.1391 68.8201 63.8571ZM31.024 81.2298C28.222 82.2194 25.9905 82.2477 24.6415 81.4699C21.7711 79.8143 20.5778 73.4236 22.2055 64.851C22.3919 63.8693 22.6139 62.8608 22.8696 61.8299C26.5974 62.6543 30.7232 63.2474 35.1329 63.6049C37.6508 67.1479 40.2875 70.4045 42.9446 73.2559C42.3641 73.8164 41.7858 74.3499 41.2108 74.8527C37.6801 77.9389 34.142 80.1285 31.024 81.2298ZM17.8974 56.4296C13.4601 54.913 9.79567 52.9419 7.28386 50.7909C5.02685 48.858 3.88733 46.9391 3.88733 45.382C3.88733 42.0684 8.82752 37.8419 17.0669 34.9692C18.0666 34.6206 19.1132 34.2921 20.1992 33.9835C21.3379 37.6877 22.8317 41.5604 24.6344 45.4766C22.8084 49.4509 21.2934 53.3854 20.1435 57.1329C19.3693 56.9103 18.6191 56.6761 17.8974 56.4296ZM22.2975 26.4781C20.5873 17.738 21.7231 11.1449 24.5813 9.4904C27.6256 7.72791 34.3576 10.2408 41.453 16.541C41.9065 16.9437 42.3618 17.3652 42.8184 17.8012C40.1745 20.6402 37.5619 23.8723 35.0663 27.3944C30.7865 27.7911 26.6897 28.4283 22.9231 29.2816C22.6863 28.329 22.4765 27.3931 22.2975 26.4781ZM61.5508 36.1707C60.6504 34.6154 59.7259 33.0969 58.7836 31.6198C61.687 31.9868 64.4688 32.4741 67.0812 33.0703C66.2969 35.5839 65.3194 38.212 64.1687 40.9062C63.3433 39.339 62.4702 37.7589 61.5508 36.1707ZM45.5434 20.5795C47.3365 22.5221 49.1322 24.691 50.8984 27.0442C49.1186 26.9601 47.3168 26.9164 45.5 26.9164C43.7004 26.9164 41.9118 26.9592 40.143 27.0418C41.911 24.7104 43.7223 22.5444 45.5434 20.5795ZM29.4335 36.1976C28.534 37.7573 27.6772 39.3288 26.8647 40.9033C25.7326 38.2185 24.7641 35.5784 23.973 33.0292C26.5694 32.4481 29.3381 31.9731 32.2231 31.613C31.2674 33.1037 30.3354 34.6337 29.4335 36.1976ZM32.3062 59.4283C29.3254 59.0957 26.5151 58.6451 23.9194 58.0801C24.7231 55.4854 25.713 52.7889 26.869 50.0463C27.6836 51.6196 28.5439 53.1918 29.4489 54.7549C30.3707 56.3473 31.3259 57.9071 32.3062 59.4283ZM45.651 70.4586C43.8085 68.4706 41.9706 66.2716 40.1758 63.9062C41.9182 63.9745 43.6946 64.0095 45.5 64.0095C47.3548 64.0095 49.1884 63.9677 50.9932 63.8874C49.2211 66.2954 47.4319 68.4978 45.651 70.4586ZM64.2058 49.9065C65.4221 52.6788 66.4474 55.3612 67.2615 57.9117C64.6231 58.5136 61.7743 58.9984 58.7729 59.3586C59.7175 57.8616 60.65 56.317 61.5664 54.7282C62.4934 53.1207 63.3735 51.5108 64.2058 49.9065ZM58.199 52.786C56.7765 55.2525 55.3161 57.607 53.8335 59.8295C51.1331 60.0226 48.3434 60.122 45.5 60.122C42.6681 60.122 39.9135 60.0341 37.261 59.8619C35.7186 57.6102 34.2264 55.2488 32.813 52.8073C31.4033 50.3724 30.1062 47.9169 28.9305 45.4753C30.1059 43.0279 31.3999 40.5698 32.8015 38.1393L32.8012 38.1397C34.2065 35.7028 35.6855 33.3528 37.2137 31.1152C39.92 30.9106 42.6952 30.8039 45.4998 30.8039C48.3171 30.8039 51.096 30.9114 53.8016 31.1178C55.3064 33.339 56.7753 35.6814 58.1862 38.1187C59.613 40.5834 60.9238 43.0252 62.1091 45.42C60.9273 47.856 59.6195 50.3225 58.199 52.786ZM66.2184 9.37475C69.2657 11.1321 70.4507 18.2193 68.5361 27.5128C68.414 28.1058 68.2765 28.7098 68.1271 29.3219C64.3517 28.4508 60.2521 27.8026 55.9598 27.3999C53.4593 23.8391 50.8681 20.602 48.2672 17.7994C48.9665 17.1267 49.6648 16.4853 50.3602 15.88C57.0784 10.0334 63.3575 7.72499 66.2184 9.37475ZM45.5 37.256C49.9878 37.256 53.626 40.894 53.626 45.382C53.626 49.8698 49.9878 53.508 45.5 53.508C41.0122 53.508 37.374 49.8698 37.374 45.382C37.374 40.894 41.0122 37.256 45.5 37.256Z" fill="white" fill-opacity="0.15"/>
</svg>
