<svg width="91" height="91" viewBox="0 0 91 91" fill="none" xmlns="http://www.w3.org/2000/svg">
<path d="M25.5938 38.9594C28.2479 28.3427 34.8833 23.0344 45.5 23.0344C61.425 23.0344 63.4156 34.9781 71.3781 36.9687C76.6865 38.2958 81.3313 36.3052 85.3125 30.9969C82.6583 41.6135 76.0229 46.9219 65.4062 46.9219C49.4813 46.9219 47.4906 34.9781 39.5281 32.9875C34.2198 31.6604 29.575 33.651 25.5938 38.9594ZM5.6875 62.8469C8.34167 52.2302 14.9771 46.9219 25.5938 46.9219C41.5187 46.9219 43.5094 58.8656 51.4719 60.8562C56.7802 62.1833 61.425 60.1927 65.4062 54.8844C62.7521 65.501 56.1167 70.8094 45.5 70.8094C29.575 70.8094 27.5844 58.8656 19.6219 56.875C14.3135 55.5479 9.66875 57.5385 5.6875 62.8469Z" fill="white" fill-opacity="0.15"/>
</svg>
