<svg width="91" height="91" viewBox="0 0 91 91" fill="none" xmlns="http://www.w3.org/2000/svg">
<g clip-path="url(#clip0_8_34)">
<path d="M77.35 0H13.65C6.11131 0 0 6.11131 0 13.65V77.35C0 84.8887 6.11131 91 13.65 91H77.35C84.8887 91 91 84.8887 91 77.35V13.65C91 6.11131 84.8887 0 77.35 0Z" fill="white" fill-opacity="0.15"/>
<path d="M41.4121 50.4766H52.7871V43.1895H20.9727V50.4766H32.3477V83.002H41.4121V50.4766ZM56.3418 81.2246C57.7814 81.9711 59.541 82.5221 61.4961 82.8953C63.4512 83.2686 65.584 83.4463 67.7168 83.4463C69.8496 83.4463 71.8047 83.2508 73.7598 82.842C75.7148 82.4332 77.3145 81.7578 78.7363 80.8869C80.176 79.9449 81.4023 78.7541 82.1133 77.1545C82.8242 75.5549 83.3752 73.7776 83.3752 71.467C83.3752 69.8496 83.1264 68.4455 82.6465 67.2014C82.1666 65.9572 81.4734 64.8908 80.5137 64.0022C79.6072 63.0602 78.5586 62.2248 77.3145 61.5139C76.0703 60.8029 74.6484 60.0565 73.0488 59.3811C71.8758 58.9012 70.916 58.4391 69.8496 57.977C68.9254 57.5149 68.1256 57.0527 67.5391 56.5906C66.8814 56.1108 66.3838 55.6131 66.0283 55.0977C65.6729 54.5645 65.4951 53.9779 65.4951 53.3203C65.4951 52.716 65.6533 52.1651 65.975 51.6674C66.2967 51.1697 66.7393 50.761 67.308 50.4055C67.8768 50.05 68.5877 49.7834 69.4408 49.5879C70.2762 49.3924 71.2004 49.3035 72.2846 49.3035C73.0311 49.3035 73.8131 49.3586 74.5951 49.4706C75.4127 49.5826 76.2481 49.755 77.0834 49.986C77.9188 50.2171 78.7363 50.5015 79.5717 50.8569C80.3537 51.2124 81.0824 51.6212 81.7045 52.0833V43.7298C80.3537 43.2143 78.8607 42.8233 77.2611 42.5745C75.6615 42.3257 73.8842 42.2013 71.7514 42.2013C69.6186 42.2013 67.6635 42.4323 65.7084 42.8767C63.7533 43.321 62.1537 44.0319 60.7318 45.0095C59.2922 45.9692 58.2436 47.1423 57.3549 48.7419C56.5195 50.2349 56.1107 51.9411 56.1107 54.0739C56.1107 56.7399 56.875 59.0505 58.4213 60.8278C59.9498 62.7829 62.3314 64.2048 65.3529 65.6267C66.5793 66.1243 67.6635 66.622 68.7299 67.1019C69.7963 67.5817 70.685 68.0794 71.3959 68.5948C72.1602 69.1103 72.7645 69.679 73.1732 70.2833C73.6176 70.8876 73.8486 71.5985 73.8486 72.4161C73.8486 72.9849 73.71 73.5181 73.4398 74.0157C73.1697 74.5134 72.7467 74.9399 72.1779 75.2954C71.6092 75.6509 70.916 75.9352 70.0451 76.1485C69.2098 76.344 68.2678 76.4507 67.0236 76.4507C65.0686 76.4507 63.1135 76.113 61.3361 75.4376C59.3811 74.7622 57.6037 73.7491 56.3418 72.6934V81.2246Z" fill="black"/>
</g>
<defs>
<clipPath id="clip0_8_34">
<rect width="91" height="91" fill="white"/>
</clipPath>
</defs>
</svg>
